<?xml version="1.0" ?><!DOCTYPE svg  PUBLIC '-//W3C//DTD SVG 1.1//EN'  'http://www.w3.org/Graphics/SVG/1.1/DTD/svg11.dtd'>
<svg height="135px" id="Layer_1" style="enable-background:new 0 0 135 135;" version="1.1" viewBox="0 0 135 135" width="135px" xml:space="preserve" 
	xmlns="http://www.w3.org/2000/svg" 
	xmlns:xlink="http://www.w3.org/1999/xlink">
	<style type="text/css">
		<![CDATA[
	.st0{fill:#465652;}
	.st1{fill:#AAB9BA;}
	.st2{fill:#47C67B;}
	.st3{fill:#AAC8D1;}
	.st4{fill:none;stroke:#E83834;stroke-width:6;stroke-linecap:round;stroke-linejoin:round;stroke-miterlimit:10;}
	.st5{fill:#7BC67B;}
	.st6{fill:#7BC7FF;}
	.st7{fill:#7C34C1;}
	.st8{fill:#7C8D96;}
	.st9{fill:#AD2707;}
	.st10{fill:#ADB8BC;}
	.st11{fill:#107510;}
	.st12{fill:#7FE5D8;}
	.st13{fill:#AF4AD1;}
	.st14{fill:#E02B7E;}
	.st15{fill:#E04038;}
	.st16{fill:#AFD7DD;}
	.st17{fill:#E0A010;}
	.st18{fill:#E0D5A4;}
	.st19{fill:#12B2B2;}
	.st20{fill:#12D66B;}
	.st21{fill:#E1A9FF;}
	.st22{fill:#1362A8;}
	.st23{fill:#E2378D;}
	.st24{fill:#E29C37;}
	.st25{fill:#E2B90E;}
	.st26{fill:#E2BF91;}
	.st27{fill:#E2CBAA;}
	.st28{fill:#14A594;}
	.st29{fill:#E4E9ED;}
	.st30{fill:#4A5D60;}
	.st31{fill:#E5B076;}
	.st32{fill:#E5B1C4;}
	.st33{fill:#E5E4C3;}
	.st34{fill:#4B6466;}
	.st35{fill:#E6FF2E;}
	.st36{fill:#18AA67;}
	.st37{fill:#E86207;}
	.st38{fill:#E8A113;}
	.st39{fill:#E8B5A6;}
	.st40{fill:#E8E8ED;}
	.st41{fill:#4E5154;}
	.st42{fill:#E9F1F4;}
	.st43{fill:#4F4B48;}
	.st44{fill:#4F74E8;}
	.st45{fill:#808E93;}
	.st46{fill:#80949B;}
	.st47{fill:#80EDAC;}
	.st48{fill:#B122E0;}
	.st49{fill:#B2C4CC;}
	.st50{fill:#83D839;}
	.st51{fill:#B3C6C6;}
	.st52{fill:none;stroke:#33363A;stroke-width:3;stroke-linecap:round;stroke-linejoin:round;stroke-miterlimit:10;}
	.st53{fill:#1A8E1C;}
	.st54{fill:#1A93D6;}
	.st55{fill:#B50B0B;}
	.st56{fill:#1AD88F;}
	.st57{fill:#B5DAF4;}
	.st58{fill:#EA7B1F;}
	.st59{fill:#EA81BD;}
	.st60{fill:#87B8D6;}
	.st61{fill:#87C3F4;}
	.st62{fill:#EAC79D;}
	.st63{fill:#EADF11;}
	.st64{fill:#EAE4C5;}
	.st65{fill:#B78094;}
	.st66{fill:#8844D8;}
	.st67{fill:#EBF4F7;}
	.st68{fill:#893015;}
	.st69{fill:#89410B;}
	.st70{fill:#899BA3;}
	.st71{fill:#EDE3B9;}
	.st72{enable-background:new    ;}
	.st73{fill:#50FF9F;}
	.st74{fill:#EEDCF4;}
	.st75{fill:#EFA37D;}
	.st76{fill:#EFA3CC;}
	.st77{fill:#EFC99A;}
	.st78{fill:#54AF79;}
	.st79{fill:#BA503A;}
	.st80{fill:#BA8663;}
	.st81{fill:#8B4FE0;}
	.st82{fill:#58ED9B;}
	.st83{fill:#BC7DFF;}
	.st84{fill:#8D9AA3;}
	.st85{fill:#BCCAD3;}
	.st86{fill:#8DE4FF;}
	.st87{fill:#20B518;}
	.st88{fill:#BF44F2;}
	.st89{fill:#21CEA1;}
	.st90{fill:#BFDAE0;}
	.st91{fill:#F0FBFC;}
	.st92{fill:#F2D9A7;}
	.st93{fill:#F2EAC9;}
	.st94{fill:#24D1AF;}
	.st95{fill:#25931C;}
	.st96{fill:#F4C4B3;}
	.st97{fill:#F4D3A2;}
	.st98{fill:#F4D647;}
	.st99{fill:#F4D7B8;}
	.st100{fill:#F4EC8E;}
	.st101{fill:#5B524D;}
	.st102{fill:#F77819;}
	.st103{fill:#F79AE1;}
	.st104{fill:#5E707A;}
	.st105{fill:#F93585;}
	.st106{fill:#F95D5D;}
	.st107{fill:#F9C19B;}
	.st108{fill:#F9CB58;}
	.st109{fill:#F9D2B2;}
	.st110{fill:#F9F07D;}
	.st111{fill:#F9F1D2;}
	.st112{fill:#F9F4B7;}
	.st113{fill:#F9F9E4;}
	.st114{fill:#5F1DAA;}
	.st115{fill:#5F9AD6;}
	.st116{fill:#C0C0C4;}
	.st117{fill:#91EA57;}
	.st118{fill:#C12727;}
	.st119{fill:#C191A0;}
	.st120{fill:#923BB7;}
	.st121{fill:#93A0A3;}
	.st122{fill:#93F9EA;}
	.st123{fill:#93FF5A;}
	.st124{fill:#C4833D;}
	.st125{fill:#95A2A5;}
	.st126{fill:#965514;}
	.st127{fill:#96562C;}
	.st128{fill:#2AF42F;}
	.st129{fill:#C5D7DD;}
	.st130{fill:#C68510;}
	.st131{fill:#C6A86D;}
	.st132{fill:#C6BB8D;}
	.st133{fill:#2C9DCE;}
	.st134{fill:#FBFCF2;}
	.st135{fill:#FC70B0;}
	.st136{fill:#FCE6C8;}
	.st137{fill:#FCF7E3;}
	.st138{fill:#C90D6B;}
	.st139{fill:#FDFEFF;}
	.st140{fill:#FDFFDC;}
	.st141{fill:#FF1A1A;}
	.st142{fill:#FF5252;}
	.st143{fill:#FF5B00;}
	.st144{fill:#FF6155;}
	.st145{fill:#FF630D;}
	.st146{fill:#FF6666;}
	.st147{fill:#FF7676;}
	.st148{fill:#FF7900;}
	.st149{fill:#FF860D;}
	.st150{fill:#FF8B00;}
	.st151{fill:#FF8F8F;}
	.st152{fill:#FF900B;}
	.st153{fill:#FF908A;}
	.st154{fill:#FF960B;}
	.st155{fill:#FF9C0D;}
	.st156{fill:#FFA9D4;}
	.st157{fill:#FFAA00;}
	.st158{fill:#FFAD40;}
	.st159{fill:#FFAF10;}
	.st160{fill:#FFB000;}
	.st161{fill:#FFBE08;}
	.st162{fill:#FFBF31;}
	.st163{fill:#FFC200;}
	.st164{fill:#FFCAE8;}
	.st165{fill:#FFCCF5;}
	.st166{fill:#FFD00B;}
	.st167{fill:#FFD039;}
	.st168{fill:#FFD400;}
	.st169{fill:#FFD833;}
	.st170{fill:#FFDB80;}
	.st171{fill:#FFDDD2;}
	.st172{fill:#FFE6D4;}
	.st173{fill:#FFE6EB;}
	.st174{fill:#FFE98D;}
	.st175{fill:#FFECD2;}
	.st176{fill:#FFF1D9;}
	.st177{fill:#FFF24D;}
	.st178{fill:#FFF3C2;}
	.st179{fill:#FFF4C7;}
	.st180{fill:#FFF800;}
	.st181{fill:#FFF80D;}
	.st182{fill:#FFF9DE;}
	.st183{fill:#FFFBD7;}
	.st184{fill:#FFFBEB;}
	.st185{fill:#FFFCC0;}
	.st186{fill:#FFFCDC;}
	.st187{fill:#FFFFFA;}
	.st188{fill:#FFFFFF;}
	.st189{fill:#63797F;}
	.st190{fill:#65E529;}
	.st191{fill:#66310E;}
	.st192{fill:#663C17;}
	.st193{fill:#9A5AE5;}
	.st194{fill:#CA30EF;}
	.st195{fill:#6892FC;}
	.st196{fill:#9CFFC4;}
	.st197{fill:#CC4306;}
	.st198{fill:#CC549E;}
	.st199{fill:#9E3256;}
	.st200{fill:#CDFFBB;}
	.st201{fill:#CE86AF;}
	.st202{fill:#CED9DD;}
	
		.st203{fill:none;stroke:#33363A;stroke-width:3;stroke-linecap:round;stroke-linejoin:round;stroke-miterlimit:10;stroke-dasharray:6;}
	.st204{fill:#CFE1E2;}
	.st205{fill:#33363A;}
	.st206{fill:#34C166;}
	.st207{fill:#364B5B;}
	.st208{fill:#3662CE;}
	.st209{fill:#36C6FF;}
	.st210{fill:#6ADB9A;}
	.st211{fill:#6D5C4D;}
	.st212{fill:#6EBDF9;}
	.st213{fill:#0031FF;}
	.st214{fill:#0062FF;}
	.st215{fill:#0068FF;}
	.st216{fill:#0086FF;}
	.st217{fill:#009BE8;}
	.st218{fill:#00AAFF;}
	.st219{fill:#D271FF;}
	.st220{fill:#D363A9;}
	.st221{fill:#D3964C;}
	.st222{fill:#D3DFE2;}
	.st223{fill:#D3E0E2;}
	.st224{fill:#D3EFF4;}
	.st225{fill:#063B66;}
	.st226{fill:#D60909;}
	.st227{fill:#D61D1D;}
	.st228{fill:#D7F0FF;}
	.st229{fill:#09B285;}
	.st230{fill:#D8D593;}
	.st231{fill:#D8E2EA;}
	.st232{fill:#D8E5EA;}
	.st233{fill:#3E5054;}
	.st234{fill:#D988FF;}
	.st235{fill:#D9E7E8;}
	.st236{fill:#702252;}
	.st237{fill:#70D3E0;}
	.st238{fill:#A02FF2;}
	.st239{fill:#A2F255;}
	.st240{fill:#A35616;}
	.st241{fill:#A3CCCC;}
	.st242{fill:#0A6ADD;}
	.st243{fill:#A5145D;}
	.st244{fill:#A57555;}
	.st245{fill:#77D6FC;}
	.st246{fill:#7815CE;}
	.st247{fill:#A7BBC1;}
	.st248{fill:#DBD279;}
	.st249{fill:#0D5C9E;}
	.st250{fill:#A83C11;}
	.st251{fill:#A8633D;}
	.st252{fill:#A8A3E5;}
	.st253{fill:#DCE6EA;}
	.st254{fill:#DCE7EA;}
	.st255{fill:#A962E8;}
	.st256{fill:#DD2466;}
	.st257{fill:#DDC38A;}
	.st258{fill:#DDD2B1;}
	.st259{fill:#DFE7E8;}
	.st260{fill:#42B1E8;}
	.st261{fill:#436377;}
	.st262{fill:#43B530;}
]]>
	</style>
	<g>
		<g>
			<polygon class="st181" points="126.16,56.434 129.695,40.807 110.226,49.926 117.969,60.027 91.239,71.76 75.478,59.389     82.845,46.867 67.501,20.785 52.155,46.867 59.522,59.389 43.761,71.758 17.032,60.027 24.774,49.926 5.305,40.807 8.84,56.434     8.824,56.426 12.313,71.847 20.459,114.215 114.54,114.215 122.68,71.879 126.176,56.426   "/>
		</g>
		<g>
			<polygon class="st166" points="127.885,48.81 114.262,55.191 117.969,60.027 117.969,67.184 91.239,78.916 75.478,66.545     75.478,59.389 80.739,50.445 67.501,27.941 54.261,50.445 59.522,59.389 59.522,66.545 43.761,78.914 17.032,67.184     17.032,60.027 20.738,55.191 7.116,48.81 8.84,56.434 8.824,56.426 12.313,71.847 20.459,114.215 114.54,114.215 122.68,71.879     126.176,56.426 126.16,56.434   "/>
		</g>
		<g>
			<path class="st205" d="M114.54,115.715H20.459c-0.719,0-1.337-0.511-1.473-1.217L10.841,72.13L7.361,56.757    c-0.015-0.066-0.025-0.133-0.031-0.199l-3.488-15.42c-0.127-0.559,0.076-1.141,0.522-1.5c0.445-0.359,1.058-0.434,1.577-0.19    l19.47,9.119c0.411,0.193,0.713,0.562,0.82,1.003c0.108,0.441,0.01,0.907-0.267,1.268l-6.579,8.584l24.155,10.601l14.023-11.005    l-6.702-11.391c-0.276-0.47-0.276-1.052,0-1.521l15.346-26.082c0.27-0.458,0.762-0.739,1.293-0.739l0,0    c0.531,0,1.023,0.281,1.293,0.739l15.344,26.082c0.276,0.47,0.276,1.052,0,1.521l-6.702,11.391l14.023,11.007l24.156-10.603    l-6.58-8.584c-0.276-0.36-0.375-0.827-0.267-1.268c0.107-0.441,0.409-0.81,0.82-1.003l19.47-9.119    c0.52-0.243,1.132-0.168,1.577,0.19c0.446,0.359,0.649,0.941,0.522,1.5L127.67,56.56c-0.006,0.066-0.017,0.132-0.031,0.197    l-3.496,15.453l-8.13,42.288C115.877,115.204,115.259,115.715,114.54,115.715z M21.698,112.715h91.603l7.906-41.119l3.459-15.296    c0.006-0.066,0.017-0.131,0.031-0.197l2.858-12.638l-15.005,7.028l6.608,8.622c0.28,0.366,0.377,0.84,0.263,1.286    c-0.115,0.446-0.429,0.815-0.851,1L91.842,73.133c-0.506,0.221-1.094,0.148-1.528-0.193L74.552,60.569    c-0.591-0.464-0.748-1.293-0.367-1.941l6.92-11.761L67.501,23.743L53.896,46.867l6.92,11.761c0.381,0.647,0.224,1.477-0.367,1.941    L44.687,72.938c-0.435,0.342-1.022,0.415-1.528,0.194L16.43,61.401c-0.422-0.185-0.735-0.554-0.851-1    c-0.114-0.446-0.018-0.92,0.263-1.286l6.607-8.622L7.444,43.465l2.858,12.638c0.015,0.066,0.025,0.133,0.031,0.199l3.442,15.214    L21.698,112.715z"/>
		</g>
		<g>
			<g>
				<circle class="st159" cx="67.5" cy="90.392" r="15.735"/>
			</g>
			<g>
				<path class="st149" d="M83.235,90.392c0,6.658-7.046,12.054-15.736,12.054c-8.689,0-15.734-5.396-15.734-12.054     c0-6.651,7.045-12.054,15.734-12.054C76.189,78.338,83.235,83.74,83.235,90.392z"/>
			</g>
			<g>
				<path class="st182" d="M51.765,90.392c0,8.691,7.045,15.737,15.734,15.737c8.69,0,15.736-7.046,15.736-15.737H51.765z"/>
			</g>
			<g>
				<path class="st178" d="M67.499,102.445c8.69,0,15.736-5.396,15.736-12.054H51.765C51.765,97.05,58.81,102.445,67.499,102.445z"/>
			</g>
			<g>
				<path class="st205" d="M67.499,107.629c-9.503,0-17.234-7.732-17.234-17.237c0-9.504,7.731-17.235,17.234-17.235     c9.504,0,17.236,7.731,17.236,17.235C84.735,99.896,77.003,107.629,67.499,107.629z M67.499,76.156     c-7.849,0-14.234,6.386-14.234,14.235c0,7.851,6.386,14.237,14.234,14.237c7.85,0,14.236-6.387,14.236-14.237     C81.735,82.542,75.349,76.156,67.499,76.156z"/>
			</g>
			<g>
				<path class="st205" d="M83.235,91.892H51.765c-0.828,0-1.5-0.672-1.5-1.5s0.672-1.5,1.5-1.5h31.471c0.828,0,1.5,0.672,1.5,1.5     S84.063,91.892,83.235,91.892z"/>
			</g>
			<g>
				<g>
					<circle class="st247" cx="67.5" cy="92.195" r="5.202"/>
				</g>
				<g>
					<circle class="st188" cx="67.5" cy="90.425" r="5.202"/>
				</g>
				<g>
					<path class="st232" d="M63.82,94.104c-2.031-2.029-2.031-5.326,0-7.356c2.032-2.031,5.327-2.031,7.358,0"/>
				</g>
				<g>
					<path class="st205" d="M67.5,97.129c-1.791,0-3.475-0.698-4.74-1.965c-1.266-1.265-1.963-2.947-1.963-4.738      s0.697-3.475,1.963-4.739c1.267-1.266,2.949-1.963,4.74-1.963c1.79,0,3.474,0.697,4.739,1.963      c1.267,1.265,1.964,2.948,1.964,4.74c0,1.791-0.698,3.474-1.965,4.738C70.974,96.431,69.291,97.129,67.5,97.129z M67.5,86.724      c-0.989,0-1.92,0.385-2.619,1.084s-1.084,1.629-1.084,2.618s0.385,1.919,1.084,2.616c1.4,1.402,3.84,1.401,5.236,0.001      c0.7-0.699,1.086-1.628,1.086-2.617s-0.385-1.919-1.085-2.617C69.419,87.108,68.489,86.724,67.5,86.724z"/>
				</g>
			</g>
		</g>
		<g>
			<path class="st205" d="M67.5,114.508c-0.828,0-1.5-0.672-1.5-1.5v-6.879c0-0.828,0.672-1.5,1.5-1.5s1.5,0.672,1.5,1.5v6.879    C69,113.836,68.328,114.508,67.5,114.508z"/>
		</g>
		<g>
			<g>
				<g>
					<path class="st205" d="M47.566,107.629H45.21c-0.828,0-1.5-0.672-1.5-1.5s0.672-1.5,1.5-1.5h2.356c0.828,0,1.5,0.672,1.5,1.5      S48.395,107.629,47.566,107.629z"/>
				</g>
				<g>
					<path class="st205" d="M40.293,107.629h-2.357c-0.828,0-1.5-0.672-1.5-1.5s0.672-1.5,1.5-1.5h2.357c0.828,0,1.5,0.672,1.5,1.5      S41.121,107.629,40.293,107.629z"/>
				</g>
				<g>
					<path class="st205" d="M33.019,107.629H19.535c-0.828,0-1.5-0.672-1.5-1.5s0.672-1.5,1.5-1.5h13.483c0.828,0,1.5,0.672,1.5,1.5      S33.847,107.629,33.019,107.629z"/>
				</g>
				<g>
					<path class="st205" d="M51.96,107.63c-0.391,0-0.78-0.16-1.061-0.44c-0.279-0.279-0.439-0.67-0.439-1.06      c0-0.4,0.16-0.78,0.439-1.061c0.561-0.56,1.561-0.56,2.12,0c0.28,0.28,0.44,0.671,0.44,1.061s-0.16,0.78-0.44,1.06      C52.74,107.47,52.359,107.63,51.96,107.63z"/>
				</g>
			</g>
			<g>
				<g>
					<path class="st205" d="M89.791,107.629h-2.356c-0.828,0-1.5-0.672-1.5-1.5s0.672-1.5,1.5-1.5h2.356c0.828,0,1.5,0.672,1.5,1.5      S90.619,107.629,89.791,107.629z"/>
				</g>
				<g>
					<path class="st205" d="M97.064,107.629h-2.357c-0.828,0-1.5-0.672-1.5-1.5s0.672-1.5,1.5-1.5h2.357c0.828,0,1.5,0.672,1.5,1.5      S97.893,107.629,97.064,107.629z"/>
				</g>
				<g>
					<path class="st205" d="M115.465,107.629h-13.483c-0.828,0-1.5-0.672-1.5-1.5s0.672-1.5,1.5-1.5h13.483      c0.828,0,1.5,0.672,1.5,1.5S116.293,107.629,115.465,107.629z"/>
				</g>
				<g>
					<path class="st205" d="M83.04,107.63c-0.391,0-0.78-0.16-1.061-0.44c-0.279-0.279-0.439-0.67-0.439-1.06      c0-0.4,0.16-0.78,0.439-1.061c0.561-0.56,1.561-0.56,2.12,0c0.28,0.28,0.44,0.671,0.44,1.061s-0.16,0.78-0.44,1.06      C83.819,107.47,83.43,107.63,83.04,107.63z"/>
				</g>
			</g>
		</g>
	</g>
</svg>